<?xml version="1.0" encoding="UTF-8"?>
<svg width="220" height="54" viewBox="0 0 220 54" fill="none" xmlns="http://www.w3.org/2000/svg">
  <defs>
    <linearGradient id="g" x1="0" y1="0" x2="220" y2="54" gradientUnits="userSpaceOnUse">
      <stop stop-color="#FF6A2B"/>
      <stop offset="0.5" stop-color="#FF8246"/>
      <stop offset="1" stop-color="#FFB36D"/>
    </linearGradient>
    <filter id="s" x="-20%" y="-40%" width="140%" height="180%">
      <feDropShadow dx="0" dy="2" stdDeviation="2" flood-opacity=".25"/>
    </filter>
  </defs>

  <!-- gear icon -->
  <g transform="translate(6,6)" filter="url(#s)">
    <circle cx="21" cy="21" r="20" fill="url(#g)"/>
    <g transform="translate(21,21)">
      <g fill="#ffffff">
        <path d="M0-10 l3 0 1 4 4 1 0 3 -4 1 -1 4 -3 0 -1 -4 -4 -1 0 -3 4 -1 1 -4z"/>
        <circle r="3.2"/>
      </g>
    </g>
  </g>

  <!-- wordmark ITMS -->
  <g transform="translate(58,10)" fill="url(#g)" filter="url(#s)">
    <path d="M0 32h7V0H0v32z"/> <!-- I -->
    <path d="M23.5 7h11V0H9v7h7v25h7.5V7z"/> <!-- T -->
    <path d="M50.5 0c-9.2 0-15.5 6.3-15.5 16 0 9.6 6.4 16 15.8 16 6.1 0 10.9-2.7 13.5-7.3l-6.6-3.2c-1.4 2.4-3.6 3.6-6.6 3.6-4.7 0-8-3.3-8-9.2s3.3-9.2 8-9.2c2.8 0 4.9 1 6.4 3.1l6.7-3.1C62 2.6 57 0 50.5 0z"/> <!-- M -->
    <path d="M93.5 0c-8.7 0-14.7 3.9-14.7 9.7 0 11.3 18.5 7.6 18.5 12.2 0 1.8-2.1 3-5.8 3-3.6 0-7-1.3-9.9-3.5l-3.6 6c3.8 3 9.2 4.9 14.9 4.9 8.8 0 14.9-3.9 14.9-9.9 0-11.1-18.6-7.4-18.6-12.1 0-1.7 1.9-2.8 5.2-2.8 3.2 0 6.4 1 8.9 2.8l3.7-6c-3.4-2.4-8-3.8-12.5-3.8z"/> <!-- S -->
  </g>

  <!-- small subtitle -->
  <text x="58" y="49" font-family="Inter,Segoe UI,Arial" font-size="10" fill="#8B96A9">IT Management System</text>
</svg>
