<?xml version="1.0" encoding="UTF-8"?>
<svg width="220" height="56" viewBox="0 0 220 56" fill="none" xmlns="http://www.w3.org/2000/svg">
  <defs>
    <linearGradient id="g" x1="0" y1="0" x2="220" y2="56" gradientUnits="userSpaceOnUse">
      <stop stop-color="#FF6A2B"/><stop offset="0.5" stop-color="#FF8246"/><stop offset="1" stop-color="#FFB36D"/>
    </linearGradient>
    <filter id="s" x="-20%" y="-40%" width="140%" height="180%">
      <feDropShadow dx="0" dy="2" stdDeviation="2" flood-opacity="0.25"/>
    </filter>
  </defs>

  <!-- Icon: gear/cloud/shield abstract -->
  <g transform="translate(6,8)" filter="url(#s)">
    <circle cx="20" cy="20" r="18" fill="url(#g)"/>
    <path d="M20 10l2 3a12 12 0 011 0l2-3 3 2-1 3a12 12 0 01.5 1l3 .8v3.6l-3 .8a12 12 0 01-.5 1l1 3-3 2-2-3a12 12 0 01-1 0l-2 3-3-2 1-3a12 12 0 01-.5-1l-3-.8v-3.6l3-.8a12 12 0 01.5-1l-1-3 3-2z" fill="#ffffff" opacity=".95"/>
    <path d="M14 23c0-3.3 2.7-6 6-6s6 2.7 6 6v1.5c0 1.1-.9 2-2 2h-8c-1.1 0-2-.9-2-2V23z" fill="#0f172a"/>
    <path d="M18 23a2 2 0 104 0 2 2 0 10-4 0z" fill="#6ee7ff"/>
  </g>

  <!-- Wordmark: ITMS -->
  <g transform="translate(58,8)" fill="url(#g)" filter="url(#s)">
    <path d="M0 34h8V0H0v34z"/> <!-- I -->
    <path d="M24 8h12V0H10v8h6v26h8V8z"/> <!-- T -->
    <path d="M52 0c-9.4 0-16 6.3-16 16.8 0 10.2 6.8 17.2 16.6 17.2 6.3 0 11.2-2.7 14-7.5l-6.6-3.4c-1.5 2.6-3.8 3.9-7 3.9-5 0-8.4-3.6-8.4-10.1S48 7 53 7c3 0 5.3 1.1 6.9 3.2l6.7-3.2C64 2.6 58.8 0 52 0z"/> <!-- M -->
    <path d="M96 0c-9 0-15.1 4-15.1 10 0 11.6 19 7.8 19 12.6 0 1.9-2.2 3.2-6 3.2-3.7 0-7.2-1.3-10.2-3.6l-3.7 6.2c3.9 3.1 9.4 5.1 15.3 5.1 9 0 15.3-4 15.3-10.3 0-11.5-19.2-7.7-19.2-12.5 0-1.8 2-3 5.4-3 3.3 0 6.6 1 9.2 2.9l3.8-6.1C105.6 1.5 100.8 0 96 0z"/> <!-- S -->
  </g>

  <text x="58" y="52" font-family="Inter,Segoe UI,Arial" font-size="10" fill="#8B96A9">IT Management System</text>
</svg>
