<?xml version="1.0" encoding="UTF-8"?>
<svg width="720" height="540" viewBox="0 0 720 540" fill="none" xmlns="http://www.w3.org/2000/svg">
  <defs>
    <linearGradient id="og" x1="0" y1="0" x2="720" y2="540" gradientUnits="userSpaceOnUse">
      <stop stop-color="#FF6A2B"/><stop offset=".5" stop-color="#FF8246"/><stop offset="1" stop-color="#FFB36D"/>
    </linearGradient>
    <filter id="sd" x="-20%" y="-20%" width="140%" height="160%">
      <feDropShadow dx="0" dy="14" stdDeviation="18" flood-color="#000" flood-opacity=".25"/>
    </filter>
  </defs>

  <!-- แผ่นพื้น -->
  <ellipse cx="360" cy="460" rx="220" ry="34" fill="rgba(0,0,0,.10)"/>

  <!-- โต๊ะ -->
  <rect x="180" y="330" width="360" height="20" rx="10" fill="#fff" stroke="#e9edf3"/>
  <rect x="205" y="346" width="310" height="14" rx="7" fill="#eef2ff"/>

  <!-- หุ่นยนต์ -->
  <g filter="url(#sd)">
    <!-- หัว -->
    <rect x="300" y="170" width="120" height="100" rx="24" fill="url(#og)"/>
    <rect x="320" y="195" width="80" height="50" rx="12" fill="#0f172a"/>
    <circle cx="345" cy="220" r="8" fill="#6ee7ff"/>
    <circle cx="375" cy="220" r="8" fill="#6ee7ff"/>
    <rect x="355" y="235" width="10" height="6" rx="3" fill="#a3eaff"/>

    <!-- เสาอากาศ -->
    <rect x="356" y="150" width="8" height="26" rx="4" fill="#ffb36d"/>
    <circle cx="360" cy="146" r="6" fill="#ffd7a6"/>

    <!-- ลำตัว -->
    <rect x="288" y="266" width="144" height="90" rx="18" fill="url(#og)"/>
    <rect x="308" y="286" width="104" height="50" rx="10" fill="#fff" stroke="#e9edf3"/>

    <!-- แขนจับแป้น -->
    <rect x="258" y="300" width="40" height="18" rx="9" fill="#ff9a63"/>
    <rect x="422" y="300" width="40" height="18" rx="9" fill="#ff9a63"/>

    <!-- ขา/เบาะนั่ง -->
    <rect x="316" y="350" width="24" height="54" rx="12" fill="#ff8246"/>
    <rect x="380" y="350" width="24" height="54" rx="12" fill="#ff8246"/>
    <rect x="300" y="400" width="120" height="18" rx="9" fill="#1f2937" opacity=".08"/>
  </g>

  <!-- จอคอม -->
  <rect x="260" y="260" width="200" height="120" rx="16" fill="#0b1220"/>
  <rect x="270" y="270" width="180" height="80" rx="10" fill="#111a2c"/>
  <rect x="290" y="290" width="140" height="12" rx="6" fill="#3658ff" opacity=".4"/>
  <rect x="290" y="308" width="110" height="12" rx="6" fill="#6aa8ff" opacity=".35"/>
  <rect x="290" y="326" width="160" height="12" rx="6" fill="#ffb36d" opacity=".45"/>

  <!-- แป้นพิมพ์ -->
  <rect x="305" y="386" width="110" height="12" rx="6" fill="#e2e8f0"/>

  <!-- ฟองกลมประกาย -->
  <circle cx="540" cy="160" r="24" fill="#ffffff" opacity=".15"/>
  <circle cx="170" cy="210" r="14" fill="#ffffff" opacity=".15"/>
  <circle cx="560" cy="260" r="12" fill="#ffffff" opacity=".12"/>
</svg>
