<?xml version="1.0" encoding="UTF-8"?>
<svg width="720" height="540" viewBox="0 0 720 540" fill="none" xmlns="http://www.w3.org/2000/svg">
  <defs>
    <linearGradient id="og" x1="0" y1="0" x2="720" y2="540" gradientUnits="userSpaceOnUse">
      <stop stop-color="#FF6A2B"/><stop offset=".5" stop-color="#FF8246"/><stop offset="1" stop-color="#FFB36D"/>
    </linearGradient>
    <filter id="sd" x="-20%" y="-20%" width="140%" height="160%">
      <feDropShadow dx="0" dy="14" stdDeviation="18" flood-color="#000" flood-opacity=".22"/>
    </filter>
  </defs>

  <!-- เงาพื้น -->
  <ellipse cx="360" cy="466" rx="220" ry="30" fill="rgba(0,0,0,.12)"/>

  <!-- เบาะนั่ง -->
  <g filter="url(#sd)">
    <rect x="260" y="380" width="200" height="22" rx="11" fill="#0f172a" opacity=".08"/>
  </g>

  <!-- ตัวคน -->
  <g filter="url(#sd)">
    <!-- ขา -->
    <rect x="315" y="352" width="26" height="70" rx="13" fill="#ff8246"/>
    <rect x="380" y="352" width="26" height="70" rx="13" fill="#ff8246"/>

    <!-- เสื้อ -->
    <path d="M295 300c0-30 22-52 52-52s52 22 52 52v44H295v-44z" fill="url(#og)"/>

    <!-- แขน -->
    <rect x="270" y="316" width="40" height="18" rx="9" fill="#ff9a63"/>
    <rect x="410" y="316" width="40" height="18" rx="9" fill="#ff9a63"/>

    <!-- คอ -->
    <rect x="340" y="266" width="40" height="20" rx="10" fill="#ffd7b0"/>

    <!-- หัว -->
    <rect x="318" y="220" width="84" height="58" rx="22" fill="#ffd7b0"/>
    <circle cx="346" cy="248" r="6" fill="#0f172a"/>
    <circle cx="374" cy="248" r="6" fill="#0f172a"/>
    <path d="M338 264c8 8 36 8 44 0" stroke="#0f172a" stroke-width="4" stroke-linecap="round"/>

    <!-- ผม/ฮู้ด -->
    <path d="M360 214c-24 0-44 14-48 30l6 6c8-10 20-16 42-16s34 6 42 16l6-6c-4-16-24-30-48-30z" fill="#1f2937"/>
  </g>

  <!-- Laptop -->
  <g filter="url(#sd)">
    <rect x="300" y="330" width="120" height="70" rx="10" fill="#0b1220"/>
    <rect x="308" y="338" width="104" height="42" rx="8" fill="#111a2c"/>
    <rect x="315" y="346" width="90" height="10" rx="5" fill="#6aa8ff" opacity=".55"/>
    <rect x="315" y="362" width="70" height="10" rx="5" fill="#a0c2ff" opacity=".45"/>
    <rect x="300" y="402" width="120" height="10" rx="5" fill="#e2e8f0"/>
  </g>

  <!-- icon เล็ก IT -->
  <circle cx="520" cy="160" r="20" fill="#ffffff" opacity=".15"/>
  <circle cx="190" cy="220" r="12" fill="#ffffff" opacity=".15"/>
  <circle cx="540" cy="260" r="10" fill="#ffffff" opacity=".12"/>
</svg>
